<?xml version="1.0" encoding="UTF-8"?>
<svg version="1.1" xmlns="http://www.w3.org/2000/svg" width="357" height="301">
<path d="M0 0 C1.28886108 -0.01593704 1.28886108 -0.01593704 2.60375977 -0.03219604 C29.34774656 -0.28556484 54.02360655 6.53569808 73.90625 25.19140625 C90.09349592 41.57267738 93.84042508 60.90354899 93.73046875 83.13671875 C93.45951904 94.44886901 91.69996647 104.7655315 88.1875 115.5 C87.95756348 116.2125293 87.72762695 116.92505859 87.49072266 117.65917969 C85.93187667 122.36550451 84.13946924 126.94389018 82.1875 131.5 C81.90036133 132.17450195 81.61322266 132.84900391 81.31738281 133.54394531 C73.60451778 151.37942457 63.17228011 167.26612714 51.1875 182.5 C50.43984375 183.46164063 49.6921875 184.42328125 48.921875 185.4140625 C35.80084101 201.88824962 20.72644955 217.45863158 4.1875 230.5 C2.99633602 231.51655561 1.80810229 232.53657314 0.625 233.5625 C-1.8125 235.5 -1.8125 235.5 -3.8125 235.5 C-4.53713976 219.66585034 -5.0816515 203.85619858 -4.83642578 188.00390625 C-4.81567244 185.83200567 -4.84761917 183.67092978 -4.90234375 181.5 C-4.82713712 172.3892542 -1.03055413 167.87396405 5.1875 161.5 C28.11990045 137.70157234 49.86809735 104.23363322 50.22265625 70.1171875 C49.59663914 57.19985877 45.01194953 45.84373354 35.625 36.8125 C17.83965144 22.29453555 -7.04078908 22.90842322 -28.69775391 24.74462891 C-53.55145 27.66777043 -78.66659424 38.32383168 -100.8125 49.5 C-101.59947266 49.89622559 -102.38644531 50.29245117 -103.19726562 50.70068359 C-125.9835584 62.36509537 -148.52282028 77.46054855 -167.1875 95.05078125 C-169.28992138 97.01241548 -171.42137926 98.90007478 -173.59765625 100.77734375 C-184.54989021 110.32363443 -195.14109706 120.82876037 -203.8125 132.5 C-204.49771729 133.41918213 -204.49771729 133.41918213 -205.19677734 134.35693359 C-221.75881692 156.73210373 -235.76621967 181.42501322 -236.1875 209.9375 C-236.20876953 211.03795654 -236.20876953 211.03795654 -236.23046875 212.16064453 C-236.16101308 219.7990322 -233.69223531 226.53587907 -228.8125 232.5 C-221.33180217 237.97069724 -213.79787776 238.17981476 -204.8125 237.5 C-190.07418503 234.71885162 -177.82455342 226.27959977 -166.8125 216.5 C-165.905 215.70207031 -164.9975 214.90414062 -164.0625 214.08203125 C-152.26760954 203.48906577 -140.56616193 192.45510315 -130.7734375 179.9609375 C-128.75820265 177.43185791 -126.62962331 175.06422317 -124.4375 172.6875 C-119.91596488 167.71929677 -115.80097794 162.49196423 -111.6875 157.1875 C-109.32237367 154.13925817 -106.90841208 151.13449264 -104.47802734 148.13818359 C-96.93750016 138.82400086 -89.85860973 129.19087354 -82.8125 119.5 C-81.70580286 117.98562322 -80.59903353 116.47129921 -79.4921875 114.95703125 C-69.14242449 100.75619364 -59.22450223 86.28048681 -49.625 71.5625 C-48.79548828 70.29237061 -48.79548828 70.29237061 -47.94921875 68.99658203 C-47.43617188 68.20493652 -46.923125 67.41329102 -46.39453125 66.59765625 C-45.94311768 65.90164307 -45.4917041 65.20562988 -45.02661133 64.48852539 C-43.83563697 62.53789476 -42.80255599 60.55879766 -41.8125 58.5 C-40.8225 58.5 -39.8325 58.5 -38.8125 58.5 C-38.69579095 84.76839056 -38.6075727 111.03674237 -38.55343914 137.30533981 C-38.5276379 149.50182503 -38.49245054 161.69814931 -38.43530273 173.89453125 C-38.38552674 184.52268493 -38.35322297 195.15072208 -38.34205753 205.77898908 C-38.33552897 211.40864052 -38.32014491 217.03795858 -38.28384972 222.66750336 C-38.24998211 227.963286 -38.23942842 233.25859704 -38.24696159 238.55447769 C-38.24558291 240.5007928 -38.23559566 242.44712323 -38.21647263 244.39334488 C-38.19167859 247.04624105 -38.19754429 249.69734513 -38.21122742 252.35028076 C-38.18938111 253.51176105 -38.18938111 253.51176105 -38.16709346 254.69670558 C-38.22075235 258.53229383 -38.45466579 260.1370839 -41.19497395 262.91630936 C-70.17194685 280.4483453 -102.55228199 293.13337736 -135.8125 299.5 C-136.73716064 299.68691406 -137.66182129 299.87382812 -138.61450195 300.06640625 C-148.11215008 301.78058978 -157.55531441 301.87227443 -167.17602539 301.87060547 C-169.97800121 301.87496577 -172.77838051 301.91136794 -175.58007812 301.94921875 C-202.38323853 302.1169718 -226.33860267 294.60646531 -245.8125 275.5 C-246.76962891 274.57960938 -246.76962891 274.57960938 -247.74609375 273.640625 C-260.90520861 259.92466563 -264.6170739 240.68684844 -264.375 222.375 C-264.36711456 221.29800339 -264.36711456 221.29800339 -264.35906982 220.19924927 C-263.82551527 165.90518825 -226.7144183 120.75359607 -189.8828125 84.4140625 C-185.09945831 79.76266291 -180.08556381 75.59052905 -174.8125 71.5 C-173.70978918 70.59934601 -172.60968714 69.69549186 -171.51171875 68.7890625 C-155.63535343 55.74201933 -138.83027069 44.36804335 -120.8125 34.5 C-119.94850586 34.01821289 -119.08451172 33.53642578 -118.19433594 33.04003906 C-95.0398903 20.17831772 -70.59761579 10.59311647 -44.8125 4.5 C-43.90306641 4.27699219 -42.99363281 4.05398437 -42.05664062 3.82421875 C-28.13413758 0.53766119 -14.23764926 0.09361804 0 0 Z " fill="#3541B8" transform="translate(263.8125,-0.5)"/>
</svg>
